<svg width="253" height="268" viewBox="0 0 253 268" fill="none" xmlns="http://www.w3.org/2000/svg">
<circle cx="125.788" cy="133.045" r="120.95" fill="#333333"/>
<path d="M-1.52588e-05 125.788C-1.52588e-05 56.317 56.5878 0 126.392 0C196.197 0 252.785 56.317 252.785 125.788C252.785 125.788 196.197 125.788 126.392 125.788C56.5878 125.788 -1.52588e-05 125.788 -1.52588e-05 125.788Z" fill="#ED263A"/>
<path d="M252.785 141.511C252.785 210.982 196.197 267.299 126.392 267.299C56.5878 267.299 0 210.982 0 141.511C0 141.511 56.5878 141.511 126.392 141.511C196.197 141.511 252.785 141.511 252.785 141.511Z" fill="#EEF2F3"/>
<circle cx="126.392" cy="133.649" r="45.3561" fill="#333333"/>
<circle cx="126.392" cy="133.649" r="34.4706" fill="#EEF2F3"/>
<circle cx="126.392" cy="133.649" r="34.4706" fill="#EEF2F3"/>
<circle cx="125.788" cy="133.045" r="24.1899" fill="#B7BFC6"/>
</svg>
